{"title":"The Stonehenge Apocalypse .2010 DvDRip.H264.Feel-Free","uid":5878435,"size":684679523,"categoryP":"video","categoryS":"movies","magnet":"?xt=urn:btih:f227624e57f016456c9758c0a7076f6f7e5a749e&amp;dn=The+Stonehenge+Apocalypse+.2010+DvDRip.H264.Feel-Free&amp;tr=udp%3A%2F%2Ftracker.openbittorrent.com%3A80&amp;tr=udp%3A%2F%2Fopen.demonii.com%3A1337&amp;tr=udp%3A%2F%2Ftracker.coppersurfer.tk%3A6969&amp;tr=udp%3A%2F%2Fexodus.desync.com%3A6969","seeders":1,"leechers":2,"uploader":"neon","files":-1,"time":1286740515,"description":"When a group of archaeologists dig up a human skeleton near the historical monument of STONEHENGE, an ancient piece of machinery hidden beneath the bedrock is discovered. Not knowing what it could be the workers accidentally trigger the mechanism and start a chain of events that may very well end the world as we know it.\n\nGenre: Sci-Fi\nLanguage: English\n &lt;a href=&quot; http://www.imdb.com/title/tt1488598/&quot; rel=&quot;nofollow&quot; target=&quot;_NEW&quot;&gt; http://www.imdb.com/title/tt1488598/&lt;/a&gt;\nSource:DVD\n\nGeneral\nComplete name :The.Stonehenge.Apocalypse.2010.DvDRip.H264.Feel-Free\nFormat : MPEG-4\nFormat profile : Base Media\nCodec ID : isom\nFile size : 652 MiB\nDuration : 1h 27mn\nOverall bit rate : 1 048 Kbps\nVideo #2\nCodec ID : avc1\nCodec ID/Info : Advanced Video Coding\nDuration : 1h 27mn\nBit rate mode : Variable\nBit rate : 882 Kbps\nWidth : 720 pixels\nHeight : 384 pixels\nDisplay aspect ratio : 1.875\nFrame rate mode : Constant\nFrame rate : 25.000 fps\nResolution : 24 bits\nColorimetry : 4:2:0\nScan type : Progressive\nBits/(Pixel*Frame) : 0.128\nStream size : 549 MiB (84%)\nAudio #1\nID : 1\nFormat : AAC\nFormat/Info : Advanced Audio Codec\nFormat version : Version 4\nFormat profile : LC\nFormat settings, SBR : No\nCodec ID : 40\nDuration : 1h 27mn\nBit rate mode : Constant\nBit rate : 160 Kbps\nChannel(s) : 2 channels\nChannel positions : L R\nSampling rate : 48.0 KHz\nResolution : 16 bits\nStream size : 99.6 MiB (15%)\n","torrent":{"xt":"urn:btih:f227624e57f016456c9758c0a7076f6f7e5a749e","amp;dn":"The+Stonehenge+Apocalypse+.2010+DvDRip.H264.Feel-Free","amp;tr":["udp%3A%2F%2Ftracker.openbittorrent.com%3A80","udp%3A%2F%2Fopen.demonii.com%3A1337","udp%3A%2F%2Ftracker.coppersurfer.tk%3A6969","udp%3A%2F%2Fexodus.desync.com%3A6969"],"infoHash":"f227624e57f016456c9758c0a7076f6f7e5a749e","infoHashBuffer":{"type":"Buffer","data":[242,39,98,78,87,240,22,69,108,151,88,192,167,7,111,111,126,90,116,158]},"announce":[],"urlList":[]}}